<svg xmlns="http://www.w3.org/2000/svg" aria-hidden="true" style="position:absolute;width:0;height:0;overflow:hidden">
  <defs>
    <symbol id="icon-instagram" viewBox="0 0 30 32">
      <path d="M23.252 6.087a1.821 1.821 0 0 0-1.784 2.174 1.818 1.818 0 0 0 3.296.655 1.819 1.819 0 0 0-1.512-2.83zm6.973 3.668a11.492 11.492 0 0 0-.697-3.683 7.483 7.483 0 0 0-1.758-2.683 7.125 7.125 0 0 0-2.683-1.743 11.071 11.071 0 0 0-3.683-.712C19.797.843 19.282.843 15.159.843s-4.638 0-6.245.091a11.071 11.071 0 0 0-3.683.712 7.242 7.242 0 0 0-2.683 1.743A7.125 7.125 0 0 0 .805 6.072a11.071 11.071 0 0 0-.712 3.683C.002 11.362.002 11.877.002 16s0 4.638.091 6.245c.026 1.259.267 2.505.712 3.683a7.125 7.125 0 0 0 1.743 2.683 7.242 7.242 0 0 0 2.683 1.743c1.178.445 2.424.686 3.683.712 1.607.091 2.122.091 6.245.091s4.638 0 6.245-.091a11.071 11.071 0 0 0 3.683-.712 7.125 7.125 0 0 0 2.683-1.743 7.35 7.35 0 0 0 1.758-2.683c.432-1.181.668-2.426.697-3.683 0-1.607.091-2.122.091-6.245s0-4.638-.091-6.245zm-2.729 12.308a8.503 8.503 0 0 1-.515 2.819 4.633 4.633 0 0 1-1.137 1.743 4.836 4.836 0 0 1-1.743 1.137 8.503 8.503 0 0 1-2.819.515c-1.516.076-2.077.091-6.063.091s-4.547 0-6.063-.091a8.672 8.672 0 0 1-2.941-.455 4.965 4.965 0 0 1-1.667-1.137 4.55 4.55 0 0 1-1.122-1.743 8.4 8.4 0 0 1-.606-2.88c0-1.516-.091-2.077-.091-6.063s0-4.547.091-6.063a8.384 8.384 0 0 1 .531-2.88c.267-.64.676-1.21 1.197-1.667a4.769 4.769 0 0 1 1.667-1.213 8.679 8.679 0 0 1 2.88-.515c1.516 0 2.077-.091 6.063-.091s4.547 0 6.063.091a8.503 8.503 0 0 1 2.819.515 4.638 4.638 0 0 1 1.804 1.213 4.642 4.642 0 0 1 1.137 1.667c.337.923.511 1.897.515 2.88.076 1.516.091 2.077.091 6.063s-.015 4.547-.091 6.063zM15.158 8.224a7.78 7.78 0 0 0-7.173 4.811 7.777 7.777 0 1 0 14.965 2.967 7.765 7.765 0 0 0-4.808-7.193 7.764 7.764 0 0 0-2.983-.583zm0 12.824a5.045 5.045 0 0 1-4.663-3.116 5.044 5.044 0 0 1 3.678-6.881 5.053 5.053 0 0 1 5.181 2.146 5.053 5.053 0 0 1-.627 6.374 5.063 5.063 0 0 1-3.57 1.478z"/>
    </symbol>
    <symbol id="icon-twitter" viewBox="0 0 30 32">
      <path fill="transparent" stroke-linecap="round" stroke-linejoin="round" stroke-width="2.526" d="M29.053 4.633a13.788 13.788 0 0 1-3.966 1.933 5.657 5.657 0 0 0-8.952.536 5.657 5.657 0 0 0-.976 3.254v1.263c-2.22.058-4.419-.435-6.403-1.433S4.646 6.81 3.369 4.993c0 0-4.632 12.272 6.737 17.325a14.7 14.7 0 0 1-8.842 2.526c11.368 6.316 25.263 0 25.263-14.526a5.665 5.665 0 0 0-.101-1.048 9.749 9.749 0 0 0 2.627-4.636z"/>
    </symbol>
    <symbol id="icon-facebook" viewBox="0 0 15 32">
      <path d="M12.15 6.357h2.612V1.766a34.836 34.836 0 0 0-3.807-.202c-3.779 0-6.364 2.396-6.364 6.785v3.782H.325v5.139h4.266v13.166h5.113V17.27h4.252l.639-5.139H9.704V8.854c0-1.516.389-2.497 2.445-2.497z"/>
    </symbol>
  </defs>
</svg>
