<svg aria-hidden="true" style="position: absolute; width: 0; height: 0; overflow: hidden;" version="1.1" xmlns="http://www.w3.org/2000/svg" xmlns:xlink="http://www.w3.org/1999/xlink">
<defs>
<symbol id="icon-search" viewBox="0 0 32 32">
<path fill="none" stroke-linejoin="round" stroke-linecap="round" stroke-miterlimit="4" stroke-width="2.6" d="M14.667 25.333c5.891 0 10.667-4.776 10.667-10.667s-4.776-10.667-10.667-10.667c-5.891 0-10.667 4.776-10.667 10.667s4.776 10.667 10.667 10.667z"></path>
<path fill="none" stroke-linejoin="round" stroke-linecap="round" stroke-miterlimit="4" stroke-width="2.6" d="M27.999 28l-5.8-5.8"></path>
</symbol>
<symbol id="icon-chevron-down" viewBox="0 0 32 32">
<path d="M14.588 25.413c0.781 0.781 2.050 0.781 2.831 0l12-12c0.781-0.781 0.781-2.050 0-2.831s-2.050-0.781-2.831 0l-10.588 10.588-10.588-10.581c-0.781-0.781-2.050-0.781-2.831 0s-0.781 2.050 0 2.831l12 12z"></path>
</symbol>
<symbol id="icon-Vector-5" viewBox="0 0 33 32">
<path fill="none" stroke-linejoin="miter" stroke-linecap="butt" stroke-miterlimit="4" stroke-width="0.7805" d="M0.78 15.501l15.61 15.719M16.39 31.22l15.61-15.719M16.39 31.22v-31.22"></path>
</symbol>
<symbol id="icon-pop-epis-modal-close" viewBox="0 0 32 32">
<path stroke-linejoin="round" stroke-linecap="round" stroke-miterlimit="4" stroke-width="2.4" d="M24 8l-16 16"></path>
<path stroke-linejoin="round" stroke-linecap="round" stroke-miterlimit="4" stroke-width="2.4" d="M8 8l16 16"></path>
</symbol>
<symbol id="icon-down" viewBox="0 0 48 32">
<path stroke-linejoin="round" stroke-linecap="round" stroke-miterlimit="4" stroke-width="8" d="M6 7l18 18 18-18"></path>
</symbol>
</defs>
</svg>
